# xmcd
#
# Track frame offsets: 
#        150
#        45936
#        65358
#        84624
#        106188
#        138220
#        155726
#        168175
#        193887
#        225773
#
# Disc length: 3309 seconds
#
# Revision: 6
# Processed by: cddbd v1.5.2PL0 Copyright (c) Steve Scherf et al.
# Submitted via: ExactAudioCopyFreeDBPlugin 1.0
#
DISCID=720ceb0a
DTITLE=Michael Kiwanuka - Love and Hate
DYEAR=2016
DGENRE=Rhythm and Blues
TTITLE0=Cold Little Heart
TTITLE1=Black Man in a White World
TTITLE2=Falling
TTITLE3=Place I Belong
TTITLE4=Love and Hate
TTITLE5=One More Night
TTITLE6=I'll Never Love
TTITLE7=Rule the World
TTITLE8=Father's Child
TTITLE9=The Final Frame
EXTD=YEAR: 2016
EXTT0=
EXTT1=
EXTT2=
EXTT3=
EXTT4=
EXTT5=
EXTT6=
EXTT7=
EXTT8=
EXTT9=
PLAYORDER=
